<svg width="54" height="54" viewBox="0 0 54 54" fill="none" xmlns="http://www.w3.org/2000/svg">
<path d="M49.5 21.375H32.625V4.5C32.625 2.4293 30.9457 0.75 28.875 0.75H25.125C23.0543 0.75 21.375 2.4293 21.375 4.5V21.375H4.5C2.4293 21.375 0.75 23.0543 0.75 25.125V28.875C0.75 30.9457 2.4293 32.625 4.5 32.625H21.375V49.5C21.375 51.5707 23.0543 53.25 25.125 53.25H28.875C30.9457 53.25 32.625 51.5707 32.625 49.5V32.625H49.5C51.5707 32.625 53.25 30.9457 53.25 28.875V25.125C53.25 23.0543 51.5707 21.375 49.5 21.375Z" fill="white"/>
</svg>
